# xmcd
#
# Track frame offsets:
#	150
#	33540
#	56239
#	72090
#	104500
#	119970
#	143295
#	168805
#	194355
#	232500
#
# Disc length: 3398 seconds
#
# Revision: 1
# Processed by: cddbd v1.5.2PL0 Copyright (c) Steve Scherf et al.
# Submitted via: audiograbber 1.83.01
#
DISCID=860d440a
DTITLE=Joce'lyn B - Bitch a da Blues
DYEAR=1900
DGENRE=Blues
TTITLE0=Mustang Sally
TTITLE1=Sweet Potato Pie
TTITLE2=He Acts Like a Fool
TTITLE3=When Somethings Wrong With My Baby
TTITLE4=Slow Down Please
TTITLE5=I'd Rather Drink Muddy Water
TTITLE6=Chase Away the Blues
TTITLE7=Walkin' the Dog
TTITLE8=Leave My Man Alone
TTITLE9=Stoop Down
EXTD=
EXTT0=
EXTT1=
EXTT2=
EXTT3=
EXTT4=
EXTT5=
EXTT6=
EXTT7=
EXTT8=
EXTT9=
PLAYORDER=
